<?xml version="1.0" standalone="no"?>
<!DOCTYPE svg PUBLIC "-//W3C//DTD SVG 20010904//EN"
 "http://www.w3.org/TR/2001/REC-SVG-20010904/DTD/svg10.dtd">
<svg version="1.0" xmlns="http://www.w3.org/2000/svg"
 width="164.000000pt" height="164.000000pt" viewBox="0 0 164.000000 164.000000"
 preserveAspectRatio="xMidYMid meet">
<metadata>
Created by potrace 1.11, written by Peter Selinger 2001-2013
</metadata>
<g transform="translate(0.000000,164.000000) scale(0.100000,-0.100000)"
fill="#000000" stroke="none">
<path d="M310 1525 c-14 -8 -51 -14 -87 -15 l-63 0 0 -289 c0 -276 -1 -290
-19 -296 -11 -3 -22 -12 -25 -20 -3 -8 -12 -15 -21 -15 -8 0 -15 -6 -15 -13 0
-7 -10 -17 -22 -22 -41 -19 -33 -35 19 -33 26 0 56 0 66 -1 16 -1 17 -23 17
-311 l0 -310 355 0 c309 0 355 -2 355 -15 0 -8 4 -15 10 -15 6 0 6 -10 -1 -27
-8 -21 -7 -30 3 -38 14 -10 14 -13 17 -70 1 -24 6 -35 16 -35 8 0 15 7 15 16
0 9 5 12 11 8 8 -5 10 1 7 18 -2 13 1 30 8 36 8 7 11 24 8 40 -4 19 0 32 10
41 9 8 16 20 16 27 0 12 42 14 235 14 l235 0 0 135 c0 76 4 135 9 135 5 0 17
-8 27 -17 18 -18 81 -26 90 -11 3 5 1 15 -5 21 -5 7 -8 22 -5 33 3 12 -1 26
-10 33 -8 7 -13 18 -10 26 3 7 -7 22 -22 34 -15 11 -22 21 -15 21 19 0 12 17
-22 54 -24 25 -30 37 -20 40 18 7 16 26 -2 26 -14 0 -16 34 -15 268 0 147 0
322 0 390 l0 122 -293 0 c-242 0 -297 3 -313 15 -25 19 -44 19 -44 0 0 -13
-26 -15 -171 -15 -107 0 -178 4 -191 11 -34 18 -110 21 -138 4z m10 -85 c11
-11 20 -23 20 -27 1 -5 19 -20 41 -36 22 -15 38 -31 35 -36 -15 -23 106 -116
235 -182 41 -20 58 -34 49 -39 -14 -9 -77 -2 -102 11 -26 14 -115 11 -130 -4
-7 -8 -30 -17 -51 -21 -21 -4 -37 -13 -37 -21 0 -7 -16 -19 -35 -25 -19 -6
-35 -17 -35 -25 0 -12 -26 -26 -77 -40 l-23 -6 0 235 0 236 45 0 c32 0 51 -6
65 -20z m491 -7 c5 -81 3 -175 -3 -179 -3 -2 -27 27 -53 66 -30 46 -63 80 -96
101 -27 18 -49 34 -49 36 0 2 45 3 100 3 l100 0 1 -27z m605 -300 c1 -178 0
-323 -2 -323 -3 0 -16 7 -30 16 -22 15 -23 18 -7 29 15 11 15 13 -8 25 -13 7
-40 28 -59 47 -19 19 -53 43 -75 53 -35 16 -37 18 -15 19 14 1 38 8 54 16 15
8 37 15 47 15 11 0 19 5 19 11 0 14 27 40 45 43 21 3 20 20 0 24 -9 2 -25 12
-35 22 -19 19 -134 36 -172 25 -13 -4 -54 -21 -91 -37 -66 -28 -69 -29 -82
-11 -11 13 -13 40 -9 103 5 77 3 90 -20 140 -14 31 -35 65 -46 77 -11 12 -20
25 -20 28 0 3 114 4 253 3 l252 -3 1 -322z m-781 -276 c-59 -42 -194 -191
-184 -203 6 -7 0 -19 -15 -33 -14 -13 -25 -31 -25 -40 -3 -51 -8 -71 -24 -88
-9 -11 -14 -23 -10 -26 3 -4 -1 -15 -10 -25 -10 -10 -14 -22 -10 -25 3 -4 0
-15 -9 -24 -8 -10 -28 -46 -44 -80 -27 -57 -32 -62 -61 -63 l-33 0 0 295 0
295 158 -1 c136 -2 165 1 217 19 76 27 88 26 50 -1z m402 -21 c14 -25 117
-130 156 -159 28 -21 37 -24 37 -13 0 27 16 18 33 -20 11 -23 23 -34 32 -31 7
3 20 -5 29 -19 9 -13 24 -24 34 -24 9 -1 27 -16 39 -35 19 -31 21 -46 20 -157
l-2 -123 -202 -3 c-195 -2 -203 -2 -203 17 0 11 6 21 13 24 7 2 12 22 11 55 0
45 2 51 20 49 54 -6 43 202 -22 396 -18 52 -15 77 5 43z m-213 -208 c-13 -158
-12 -208 3 -208 11 0 13 -6 8 -22 -10 -30 -13 -98 -5 -98 3 0 11 5 18 12 14
14 16 -1 6 -40 l-6 -22 -249 0 c-159 0 -249 4 -249 10 0 6 9 10 20 10 11 0 20
4 20 9 0 11 56 41 75 41 7 0 15 7 19 15 3 8 12 15 19 15 8 0 20 7 27 15 7 8
16 13 20 10 5 -3 18 9 30 25 16 23 25 28 34 21 9 -8 18 1 35 34 12 25 27 43
32 39 16 -9 35 13 84 97 26 43 50 79 55 79 4 0 6 -19 4 -42z"/>
<path d="M1128 1297 c-97 -150 -101 -157 -94 -157 2 0 38 51 78 113 101 154
110 168 106 173 -3 2 -43 -56 -90 -129z"/>
<path d="M1585 470 c3 -5 10 -10 16 -10 5 0 9 5 9 10 0 6 -7 10 -16 10 -8 0
-12 -4 -9 -10z"/>
</g>
</svg>
